<svg xmlns="http://www.w3.org/2000/svg" width="63.408" height="63.408" viewBox="0 0 63.408 63.408"><defs><style>.a{fill:#4ebaa5;stroke:#4fb9a5;stroke-width:2px;}</style></defs><g transform="translate(1 1)"><path class="a" d="M61.408,35.386V90.009a3.384,3.384,0,0,1-3.386,3.386H42.369V69.626h7.978l1.193-9.266H42.355V54.439c0-2.687.74-4.51,4.592-4.51h4.907V41.636a65.974,65.974,0,0,0-7.155-.37c-7.073,0-11.925,4.318-11.925,12.254v6.84h-8v9.266h8V93.408H3.386A3.393,3.393,0,0,1,0,90.022V35.386A3.393,3.393,0,0,1,3.386,32H58.009A3.4,3.4,0,0,1,61.408,35.386Z" transform="translate(0 -32)"/></g></svg>