<svg xmlns="http://www.w3.org/2000/svg" width="204.108" height="213.36" viewBox="0 0 204.108 213.36"><defs><style>.a{fill:#4fb9a5;stroke:#4fb9a5;}.a,.b{stroke-width:2px;}.b{fill:#fff;stroke:#fff;stroke-miterlimit:10;}.c{stroke:none;}.d{fill:none;}</style></defs><g transform="translate(-1406.892 -1480.685)"><g transform="translate(1123.892 -2024.359)"><g class="a" transform="translate(283 3505.043)"><circle class="c" cx="101.554" cy="101.554" r="101.554"/><circle class="d" cx="101.554" cy="101.554" r="100.554"/></g></g><g transform="translate(1409 1526.471)"><g transform="translate(0)"><path class="b" d="M93.943,85a19.343,19.343,0,0,1,4.15,27.165,20.976,20.976,0,0,1-1.633,1.918c-6.128,7.237-16.709,11.732-30.55,12.826a90.755,90.755,0,0,1-19.133-.494l-3.386-.6,3.146-1.334c10.308-4.405,14.565-10.489,16.332-14.757h0a10.488,10.488,0,0,0,.629-5.843A19.343,19.343,0,0,1,93.748,84.836ZM50.49,124.855c8.99.779,33.065,1.5,44.53-12.091a17.381,17.381,0,1,0-26.293-22.64,17.186,17.186,0,0,0-3.283,13.484,12.571,12.571,0,0,1-.762,6.922h0c-1.708,4.163-5.544,9.829-14.2,14.324Z" transform="translate(16.514 39.375)"/><path class="b" d="M104.455,64.356a45.611,45.611,0,0,1,9.11,8.57l.494.645-.525.6c-.674.779-16.481,18.936-25.711,26.445l-.989.824-.524-1.184a17.111,17.111,0,0,0-11.747-8.9l-.914-.18.117-.929c0-.285,1.168-7.312,16.481-32.963l.45-.734.779.345a73.418,73.418,0,0,1,12.975,7.461Zm7.057,9.155c-6.323-7.746-17.081-13.11-20.05-14.488C79.748,78.8,76.692,87.191,75.942,89.648a18.909,18.909,0,0,1,11.567,8.69c8.256-7.012,21.216-21.633,24-24.827Z" transform="translate(31.593 27.056)"/><path class="b" d="M163.009.75v1.5c0,1.273-1.364,32.139-52.995,95.412l-.719.884-.762-.839c-.1-.117-10.233-11.133-20.977-15.238l-1.066-.433.629-1.019A422.774,422.774,0,0,1,111.705,46.4C130.853,22.249,147.65,7.117,161.629,1.334ZM109.174,95.52c44.11-54.3,50.7-84.715,51.676-91.756C130.705,17.605,94.581,73.044,89.412,81.1,98.462,85.03,106.732,92.956,109.174,95.52Z" transform="translate(37.991 -0.75)"/><path class="b" d="M4.429,85.376a1.094,1.094,0,0,1-.719-.75A75.2,75.2,0,0,1,4,68.534,71.185,71.185,0,0,1,23.279,28.081a.809.809,0,0,1,1.154,0c.285.375.389.884,0,1.154a71.035,71.035,0,0,0-18.819,39.5,72.174,72.174,0,0,0-.24,15.778c.09.509-.27.794-.944.869Z" transform="translate(-3.409 12.748)"/><path class="b" d="M99.284,62.13a69.819,69.819,0,0,1-.539,7.851.762.762,0,0,0,.7.914.884.884,0,0,0,.914-.7c.315-2.427.48-4.854.555-7.252a4.9,4.9,0,0,1-1.633-.809Z" transform="translate(44.09 29.836)"/><path class="b" d="M126.5,56.314a71.71,71.71,0,0,0-57.03-42.891A74.937,74.937,0,0,0,35.02,17.186a1.055,1.055,0,0,0-.46,1.065,1.062,1.062,0,0,0,1.069.452C71.394,5.691,111.2,23.058,125.372,57.86a6.117,6.117,0,0,1,1.128-1.547Z" transform="translate(12.102 5.276)"/><path class="b" d="M88.955,81.029c-1.5,7.177-3.641,15.536-6.547,24.752a.884.884,0,0,0,.689,1.064.7.7,0,0,0,.734-.555c3.087-9.679,5.3-18.429,6.877-25.861a5.276,5.276,0,0,1-1.753.6Z" transform="translate(35.945 38.955)"/><path class="b" d="M94.371,59.623A58.119,58.119,0,0,0,80.481,34.676a.816.816,0,0,0-1.136,1.169,57.085,57.085,0,0,1,14.07,26.968,6.143,6.143,0,0,1,.959-3.192Z" transform="translate(34.275 16.011)"/><path class="b" d="M89.3,55.694c-.1-.195-.225-.4-.315-.614a52.107,52.107,0,0,1,.7,6.668,6.2,6.2,0,0,1,1.647.509,40,40,0,0,0-.329-4.3C90.8,56.8,89.664,56.578,89.3,55.694Z" transform="translate(39.237 26.323)"/><path class="b" d="M8.233,110.071H8.084a.9.9,0,0,1-.524-1.049A128.121,128.121,0,0,0,15.92,76.494,58.224,58.224,0,0,1,78.13,22.629a55.647,55.647,0,0,1,24.108,7.27.734.734,0,0,1,.359,1.034.749.749,0,0,1-1.049.359,55.438,55.438,0,0,0-23.464-7.027A56.575,56.575,0,0,0,17.718,76.539,130.727,130.727,0,0,1,9.3,109.5a1.243,1.243,0,0,1-1.064.569Z" transform="translate(-1.355 10.078)"/><path class="b" d="M97.641,78.836c0,.539-.21,2.1-.494,4.57a5.319,5.319,0,0,1,1.738-1.678h.09c.15-1.364.24-2.262.285-2.638a44.05,44.05,0,0,0-40.452-47,46.447,46.447,0,0,0-13.665,1.184.763.763,0,0,0,.285,1.5A43.166,43.166,0,0,1,58.6,33.691,42.342,42.342,0,0,1,97.642,78.833Z" transform="translate(16.996 14.823)"/><path class="b" d="M14.089,117.591h-.312a.734.734,0,0,1-.359-1.049,143.838,143.838,0,0,0,13.827-46.6A43.076,43.076,0,0,1,44.939,37.806a.813.813,0,1,1,.989,1.29,41.533,41.533,0,0,0-17.051,30.9,145.606,145.606,0,0,1-13.889,47.122C14.763,117.591,14.583,117.725,14.089,117.591Z" transform="translate(1.525 17.632)"/><path class="b" d="M71.99,67.725a168.455,168.455,0,0,1-5.02,29.966,7.144,7.144,0,0,1,1.3-.117h.359a168.5,168.5,0,0,0,4.989-29.8A30.056,30.056,0,0,0,70.79,52.91a.989.989,0,0,0-1.109-.315c-.375.285-.6.749-.315,1.109A28.468,28.468,0,0,1,71.99,67.725Z" transform="translate(28.264 25.051)"/><path class="b" d="M21.17,126.555h-.329a.749.749,0,0,1-.359-1.049A167.346,167.346,0,0,0,37.936,68.78,29.517,29.517,0,0,1,69.626,41.812a27.344,27.344,0,0,1,12.663,3.956.839.839,0,0,1,.345,1.2.854.854,0,0,1-1.2.345A26.968,26.968,0,0,0,69.449,43.6,27.913,27.913,0,0,0,39.525,69.11a163.1,163.1,0,0,1-17.68,57.34,1.678,1.678,0,0,1-.674.1Z" transform="translate(5.051 19.665)"/><path class="b" d="M50.359,138.332h-.315a.719.719,0,0,1-.359-1.034A216.566,216.566,0,0,0,70.662,67.372,13.484,13.484,0,0,0,58.212,52.9,13.74,13.74,0,0,0,43.737,65.349c0,.645-.4,4.39-1.3,10.039a.884.884,0,0,1-.914.7.762.762,0,0,1-.7-.914c.9-5.649,1.2-9.23,1.29-9.889A15.268,15.268,0,0,1,58.271,51.25,15.073,15.073,0,0,1,72.31,67.372c0,.329-2.487,32.963-21.231,70.555C51.033,138.257,50.689,138.377,50.359,138.332Z" transform="translate(15.222 24.399)"/><path class="b" d="M29.262,117.185h-.329a.719.719,0,0,1-.359-1.034A183.349,183.349,0,0,0,43.646,77.54a.839.839,0,1,1,1.588.539A183.976,183.976,0,0,1,30.1,117.036a1.169,1.169,0,0,1-.839.15Z" transform="translate(9.08 37.215)"/><path class="b" d="M37.912,110.853h-.329a.719.719,0,0,1-.359-1.034c1.5-3,2.907-5.888,4.285-8.84a.779.779,0,0,1,1.394.674c-1.378,3-2.772,5.993-4.3,8.99C38.572,110.779,38.224,110.9,37.912,110.853Z" transform="translate(13.391 49.016)"/><path class="b" d="M44.732,107.537h0a.9.9,0,0,1-.674-1.079,187.411,187.411,0,0,0,10.787-44.95.824.824,0,0,1,1.633.21A192.743,192.743,0,0,1,45.615,107.1a1.407,1.407,0,0,1-.884.434Z" transform="translate(16.835 29.184)"/></g></g></g></svg>