<svg xmlns="http://www.w3.org/2000/svg" width="228.09" height="203.108" viewBox="0 0 228.09 203.108"><defs><style>.a{fill:#4fb9a5;stroke:#4fb9a5;stroke-width:2px;}.b{fill:#fff;}.c{stroke:none;}.d{fill:none;}</style></defs><g transform="translate(-845.955 -1501.685)"><g transform="translate(564.456 -2003.359)"><g class="a" transform="translate(283 3505.043)"><circle class="c" cx="101.554" cy="101.554" r="101.554"/><circle class="d" cx="101.554" cy="101.554" r="100.554"/></g></g><g transform="translate(845.955 1541.583)"><path class="b" d="M127.63,99.451H96.53a3.665,3.665,0,0,1-3.384-2.162H24.46V10.734A10.734,10.734,0,0,1,35.183,0H188.966A10.745,10.745,0,0,1,199.7,10.734V97.289H130.981a3.654,3.654,0,0,1-3.351,2.162ZM27.541,94.176H95.946v1.546a.605.605,0,0,0,.584.67h31.1a.573.573,0,0,0,.573-.573V94.284l1.546-.108h66.859V10.734a7.653,7.653,0,0,0-7.643-7.643H35.183a7.653,7.653,0,0,0-7.643,7.643Zm164.8-4.324H31.811V10.734a3.373,3.373,0,0,1,3.373-3.373H188.966a3.373,3.373,0,0,1,3.373,3.373ZM34.9,86.825H189.247V10.734a.292.292,0,0,0-.281-.292H35.183a.292.292,0,0,0-.281.292Z" transform="translate(1.981)"/><path class="b" d="M216.826,106.821H11.286C5.059,106.821,0,102.854,0,97.967V92.93H91.885v3.319c0,.238.562.7,1.438.7h41.943c.876,0,1.438-.465,1.438-.7V92.93H228.09v5.037C228.09,102.854,223.052,106.821,216.826,106.821ZM3.092,96.022v1.946c0,3.178,3.675,5.773,8.194,5.773h205.54c4.519,0,8.2-2.594,8.2-5.773V96.022h-85.2v.227c0,2.162-1.989,3.783-4.529,3.783H93.355c-2.551-.011-4.529-1.621-4.529-3.783v-.216Z" transform="translate(0 7.527)"/><path class="b" d="M81,63.025H70.187l-2.454-9.048-2.54,9.048H54.383L45.4,38H57.291L60.1,48.453,62.772,38H73.128l2.8,10.486L78.695,38H90.142Zm-9.124-2.162h7.567l7.567-20.69H80.359L75.938,56.928,71.474,40.162H64.425L60.1,56.971,55.637,40.162H48.481l7.491,20.69h7.567l4.227-15.015Z" transform="translate(3.677 3.078)"/><path class="b" d="M118.747,63.025h-10.81l-2.454-9.048-2.551,9.048H92.122L83.15,38H95.041L97.83,48.442,100.532,38h10.356l2.8,10.486L116.5,38h11.437Zm-9.113-2.162H117.2l7.567-20.69H118.12L113.7,56.928l-4.475-16.766h-7.016l-4.324,16.8-4.5-16.8H86.231l7.48,20.69h7.567l4.216-15.015Z" transform="translate(6.735 3.078)"/><path class="b" d="M156.507,63.025H145.7l-2.454-9.048-2.54,9.048h-10.81L120.91,38H132.8l2.778,10.442L138.3,38h10.356l2.8,10.486L154.226,38h11.426Zm-9.124-2.162h7.567l7.567-20.69h-6.691L151.4,56.928l-4.454-16.766h-7.026l-4.324,16.8-4.454-16.8h-7.156l7.491,20.69h7.567l4.227-15.015Z" transform="translate(9.793 3.078)"/><path class="b" d="M164.515,62.27a5.4,5.4,0,1,1,5.4-5.4,5.189,5.189,0,0,1-5.4,5.4Zm0-8.561a3.243,3.243,0,1,0,3.243,3.178,3.005,3.005,0,0,0-3.243-3.178Z" transform="translate(12.887 4.168)"/></g></g></svg>