<svg xmlns="http://www.w3.org/2000/svg" width="137.88" height="67.496" viewBox="0 0 137.88 67.496"><defs><style>.a{fill:#fff;}</style></defs><g transform="translate(0)"><g transform="translate(0)"><path class="a" d="M802.637,3975.247l-2.655,9.083h13.657L780,4028.487l8.852-30.91h-8.347l8.093-36.586h42.742l-10.748,14.256H802.637" transform="translate(-780.001 -3960.991)"/><path class="a" d="M823.88,3975.346a8.294,8.294,0,0,1,3.609.683l-.529,3.383a5.247,5.247,0,0,0-2.209-.435c-1.587,0-2.956.559-3.236,2.359l-.218,1.272h4.542l-.56,3.632h-4.574l-1.774,11.268h-4.325l1.8-11.268h-2.582l.591-3.632h2.551l.28-1.707c.685-4.376,3.827-5.557,6.627-5.557" transform="translate(-765.244 -3954.728)"/><path class="a" d="M838.9,3980.4l-2.365,14.9h-3.8l.311-1.925a6.771,6.771,0,0,1-5.165,2.359c-3.858,0-5.818-2.793-5.258-6.27l1.431-9.064h4.293l-1.369,8.784c-.342,2.018.653,2.825,2.209,2.825a5.19,5.19,0,0,0,3.889-1.986l1.525-9.623H838.9" transform="translate(-761.445 -3952.522)"/><path class="a" d="M6.409,22.6A13.205,13.205,0,0,1,0,21.076l.592-3.632a9.374,9.374,0,0,0,5.414,1.521,6.627,6.627,0,0,0,3.581-.9,4.287,4.287,0,0,0,1.925-3.068l.217-1.366a6.332,6.332,0,0,1-5.071,2.141,6.028,6.028,0,0,1-4.767-2.032A7.546,7.546,0,0,1,.468,7.6,9.565,9.565,0,0,1,3.139,2.335,7.867,7.867,0,0,1,8.774,0a5.437,5.437,0,0,1,5.1,2.792l.4-2.359h3.857l-2.3,14.621a8.425,8.425,0,0,1-3.4,5.82A10.366,10.366,0,0,1,6.409,22.6ZM9.615,3.631A4.687,4.687,0,0,0,6.371,4.865a5.355,5.355,0,0,0-1.61,3.143,3.847,3.847,0,0,0,.722,3.114,3.026,3.026,0,0,0,2.39,1.014,5.39,5.39,0,0,0,4.479-2.545l.592-3.631A3.328,3.328,0,0,0,9.615,3.631Z" transform="translate(78.641 27.447)"/><path class="a" d="M4.326,22.288H0l2.365-14.9H6.69l-2.365,14.9ZM5.1,4.935a2.384,2.384,0,0,1-1.857-.749A2.4,2.4,0,0,1,2.8,2.205,2.531,2.531,0,0,1,5.508,0,2.384,2.384,0,0,1,7.366.751a2.393,2.393,0,0,1,.444,1.982A2.53,2.53,0,0,1,5.1,4.935Z" transform="translate(98.118 20.492)"/><path class="a" d="M6.316,15.768a6.029,6.029,0,0,1-4.768-2.031A7.55,7.55,0,0,1,.125,7.6,9.59,9.59,0,0,1,2.774,2.335,7.87,7.87,0,0,1,8.433,0a5.571,5.571,0,0,1,5.133,2.918l.4-2.483h3.8L15.4,15.334H11.606l.341-2.2A6.9,6.9,0,0,1,6.316,15.768ZM9.271,3.633A4.68,4.68,0,0,0,6.028,4.885,5.419,5.419,0,0,0,4.419,7.977a3.9,3.9,0,0,0,.728,3.151,3.023,3.023,0,0,0,2.382,1.008A5.442,5.442,0,0,0,12.01,9.529L12.6,6.054A3.28,3.28,0,0,0,9.271,3.633Z" transform="translate(106.425 27.446)"/><path class="a" d="M875.8,3976.664l-.84,5.37h4.729l-.591,3.632h-4.729l-.964,5.959c-.249,1.583.373,2.111,1.96,2.111a7.387,7.387,0,0,0,2.894-.559l-.56,3.539a10.564,10.564,0,0,1-3.889.651c-2.831,0-5.351-1.458-4.76-5.152l1.027-6.549h-2.52l.591-3.632h2.489l.715-4.314,4.449-1.055" transform="translate(-741.808 -3954.153)"/></g></g></svg>