<svg xmlns="http://www.w3.org/2000/svg" width="147.893" height="68.976" viewBox="0 0 147.893 68.976"><defs><style>.a{fill:#fff;}</style></defs><g transform="translate(0)"><g transform="translate(114.984 0)"><path class="a" d="M1072.343,3970.087a31.956,31.956,0,0,0-23.27-10.1v11c12.356,0,22.409,10.535,22.409,23.484a24.187,24.187,0,0,1-3.161,12.012l2.374,9.959a1.086,1.086,0,0,1-1.3,1.345l-9.613-2.689a21.469,21.469,0,0,1-10.706,2.858v11a31.957,31.957,0,0,0,23.27-10.1,35.669,35.669,0,0,0,0-48.773" transform="translate(-1049.073 -3959.986)"/><path class="a" d="M1072.343,3970.087a31.956,31.956,0,0,0-23.27-10.1v11c12.356,0,22.409,10.535,22.409,23.484a24.187,24.187,0,0,1-3.161,12.012l2.374,9.959a1.086,1.086,0,0,1-1.3,1.345l-9.613-2.689a21.469,21.469,0,0,1-10.706,2.858v11a31.957,31.957,0,0,0,23.27-10.1,35.669,35.669,0,0,0,0-48.773" transform="translate(-1049.073 -3959.986)"/></g><path class="a" d="M83.617,19.573a7.677,7.677,0,0,1-6.19-2.545,8.086,8.086,0,0,1-1.681-5.256V.671a.42.42,0,0,1,.4-.419h3.042a.421.421,0,0,1,.4.419V11.3a5.042,5.042,0,0,0,.908,3.273,4.429,4.429,0,0,0,6.3,0,5.271,5.271,0,0,0,.88-3.273V.671A.423.423,0,0,1,88.1.252h3.016a.4.4,0,0,1,.4.419v11.1a7.991,7.991,0,0,1-1.654,5.256A7.82,7.82,0,0,1,83.617,19.573Zm-17.929,0a12.209,12.209,0,0,1-6.511-1.789.391.391,0,0,1-.16-.534l1.227-2.711a.354.354,0,0,1,.305-.237.37.37,0,0,1,.2.068,8.569,8.569,0,0,0,4.883,1.734,3.375,3.375,0,0,0,2.081-.559,2,2,0,0,0,.774-1.622c0-1.245-1.146-1.829-2.268-2.236-.432-.168-.891-.316-1.378-.473l-.016-.005a13.852,13.852,0,0,1-3.408-1.45,4.808,4.808,0,0,1-2.268-4.335,4.883,4.883,0,0,1,1.894-4A8.091,8.091,0,0,1,66.062,0a11.393,11.393,0,0,1,5.816,1.454.385.385,0,0,1,.2.228.394.394,0,0,1-.039.3L70.81,4.7a.348.348,0,0,1-.3.209.384.384,0,0,1-.208-.069A8.958,8.958,0,0,0,65.847,3.5a3.7,3.7,0,0,0-1.973.473,1.557,1.557,0,0,0-.667,1.287c0,1.022.927,1.555,2.32,2.041.374.124.76.237,1.17.357a12.132,12.132,0,0,1,3.9,1.658,4.976,4.976,0,0,1,2.081,4.277,5.416,5.416,0,0,1-2,4.389A7.822,7.822,0,0,1,65.688,19.573Zm-38.9,0a9.819,9.819,0,0,1-6.911-2.667,9.611,9.611,0,0,1-2.828-7.092,9.818,9.818,0,0,1,2.828-7.119A9.779,9.779,0,0,1,26.788,0,9.442,9.442,0,0,1,36.5,9.813,9.756,9.756,0,0,1,33.684,16.9,9.768,9.768,0,0,1,26.788,19.573Zm0-15.8a5.729,5.729,0,0,0-5.658,6.038,6.221,6.221,0,0,0,1.608,4.3,5.607,5.607,0,0,0,8.084-.011,6.243,6.243,0,0,0,1.594-4.285A5.716,5.716,0,0,0,26.788,3.775Zm-17.13,15.8A9.6,9.6,0,0,1,2.628,16.92,9.919,9.919,0,0,1,0,9.759,9.6,9.6,0,0,1,9.739,0a11.083,11.083,0,0,1,5.5,1.314.408.408,0,0,1,.187.587L14.195,4.585a.33.33,0,0,1-.308.23.486.486,0,0,1-.225-.062,8.211,8.211,0,0,0-4-1.119A5.39,5.39,0,0,0,5.694,5.386,6.354,6.354,0,0,0,4.03,9.759c0,3.563,2.379,6.149,5.656,6.149a8.171,8.171,0,0,0,4.135-1.117.594.594,0,0,1,.242-.071c.1,0,.177.065.239.211l1.227,2.74a.349.349,0,0,1-.186.53A11.453,11.453,0,0,1,9.659,19.573Zm104.882-.281H111.5a.421.421,0,0,1-.4-.418V3.831h-5.442a.421.421,0,0,1-.4-.418V.671a.421.421,0,0,1,.4-.419h14.728a.424.424,0,0,1,.427.419V3.412a.428.428,0,0,1-.427.418H114.94V18.874A.42.42,0,0,1,114.54,19.292Zm-7.471,0H95.889a.422.422,0,0,1-.426-.418V.671a.423.423,0,0,1,.426-.419H98.9a.4.4,0,0,1,.4.419V15.742h7.765a.409.409,0,0,1,.427.418v2.714A.423.423,0,0,1,107.069,19.292Zm-51.493,0H52.907a.75.75,0,0,1-.746-.418L43.436,6.962V18.874a.42.42,0,0,1-.4.418H40.182a.424.424,0,0,1-.429-.418V.671a.424.424,0,0,1,.429-.419H42.85c.311,0,.472.1.719.447L52.294,12.61V.671a.421.421,0,0,1,.4-.419h2.881a.42.42,0,0,1,.4.419v18.2A.42.42,0,0,1,55.576,19.292Z" transform="translate(0 23.441)"/></g></svg>