<svg xmlns="http://www.w3.org/2000/svg" width="203.109" height="206.655" viewBox="0 0 203.109 206.655"><defs><style>.a{fill:#4fb9a5;stroke:#4fb9a5;stroke-width:2px;}.b{fill:#fff;}.c{stroke:none;}.d{fill:none;}</style></defs><g transform="translate(-279.891 -1498.138)"><g transform="translate(-3.108 -2006.906)"><g class="a" transform="translate(283 3505.043)"><circle class="c" cx="101.554" cy="101.554" r="101.554"/><circle class="d" cx="101.554" cy="101.554" r="100.554"/></g></g><g transform="translate(279.891 1529.988)"><path class="b" d="M66.288,156.466a66.288,66.288,0,1,1,66.288-66.288,66.288,66.288,0,0,1-66.288,66.288Zm0-127.273a60.985,60.985,0,1,0,60.985,60.985A60.985,60.985,0,0,0,66.288,29.193Z" transform="translate(0 18.34)"/><path class="b" d="M60.146,136.183a52.146,52.146,0,1,1,52.146-52.146,52.146,52.146,0,0,1-52.146,52.146Zm0-98.99A46.843,46.843,0,1,0,106.99,84.036,46.843,46.843,0,0,0,60.146,37.193Z" transform="translate(6.141 24.481)"/><path class="b" d="M53.237,113.365A36.237,36.237,0,1,1,89.475,77.127a36.237,36.237,0,0,1-36.237,36.237Zm0-67.172A30.934,30.934,0,1,0,84.172,77.127,30.934,30.934,0,0,0,53.237,46.193Z" transform="translate(13.051 31.39)"/><circle class="b" cx="14.141" cy="14.141" r="14.141" transform="translate(52.146 94.376)"/><rect class="b" width="97.487" height="5.303" transform="translate(64.412 108.186) rotate(-45)"/><path class="b" d="M69.51,53.03l.354-34.523L98.659,0l5.3,17.677,17.677,5.3L103.962,52.341Zm5.621-31.606L74.866,47.6l25.826-.53,12.674-21.018L99.525,21.848,95.513,8.29Z" transform="translate(53.361)"/><rect class="b" width="42.495" height="5.303" transform="translate(124.167 49.026) rotate(-46.93)"/></g></g></svg>