<svg xmlns="http://www.w3.org/2000/svg" width="178.042" height="48.234" viewBox="0 0 178.042 48.234"><defs><style>.a{fill:#fff;}</style></defs><g transform="translate(0)"><g transform="translate(0)"><path class="a" d="M381.924,3999.919a9.33,9.33,0,0,0,8.166,4.716h0a10.9,10.9,0,0,0,9.407-5.426l4.529-7.831H381.474a9.315,9.315,0,0,0,.45,8.54" transform="translate(-380.648 -3956.401)"/><path class="a" d="M409.253,3999.2a10.9,10.9,0,0,0,9.411,5.433h0a9.434,9.434,0,0,0,8.623-13.256H404.736l4.517,7.823" transform="translate(-370.14 -3956.401)"/><path class="a" d="M434.94,3993.156l-8.1-14.023H390.714l-8.1,14.023H434.94" transform="translate(-379.79 -3961.742)"/><path class="a" d="M406.132,3967.024h-.861a13.191,13.191,0,0,0-11.39,6.575l-4.192,7.252H421.7l-4.18-7.253a13.189,13.189,0,0,0-11.389-6.575" transform="translate(-376.704 -3967.024)"/><path class="a" d="M8.868,23.34H6.57a7.075,7.075,0,0,1-4.916-1.655A5.789,5.789,0,0,1,0,17.367V15.989c0-2.827,1.273-4.883,3.583-5.789A16.721,16.721,0,0,1,9.1,9.555h1.379c1.126,0,2.133.046,3.078.138V7.076c0-3.24-1.559-4.5-5.559-4.5a16.548,16.548,0,0,0-4.732.689,2.539,2.539,0,0,1-.632.11.527.527,0,0,1-.563-.479l-.23-.964a.851.851,0,0,1-.011-.683A.752.752,0,0,1,2.343.919,20.393,20.393,0,0,1,8.225,0c2.968,0,5.049.518,6.363,1.585S16.54,4.342,16.54,6.753V22.466c0,.374-.094.46-.505.46H14.518c-.413,0-.6-.142-.6-.46L13.829,20.9h-.091A5.351,5.351,0,0,1,8.868,23.34ZM8.225,12.083A6.833,6.833,0,0,0,4.181,13a3.563,3.563,0,0,0-1.148,3.032V17A3.892,3.892,0,0,0,4,19.985a3.994,3.994,0,0,0,2.8.828H8.684c3.141,0,4.87-1.7,4.87-4.778V12.221a23.237,23.237,0,0,0-2.757-.138Z" transform="translate(72.695 13.534)"/><path class="a" d="M447.129,3971.259c0-.321.184-.505.551-.505h1.884c.368,0,.551.184.551.505v24.581a5.5,5.5,0,0,0,.413,2.895c.23.321.781.5,1.654.5h1.24c.276,0,.551.046.551.505v1.562c0,.367-.138.552-.459.552H451.77a4.928,4.928,0,0,1-3.538-1.057c-.735-.781-1.1-2.205-1.1-4.226v-25.316" transform="translate(-351.647 -3965.397)"/><path class="a" d="M3.262,30.737H1.056a.337.337,0,0,1-.367-.367V8.73c0-.331.191-.5.551-.5H3.124c.361,0,.551.174.551.5V30.37C3.675,30.607,3.529,30.737,3.262,30.737ZM2.3,4.641H2.114C.632,4.641,0,3.981,0,2.435V2.16A1.928,1.928,0,0,1,2.114,0H2.3C3.638,0,4.319.727,4.319,2.16v.275C4.319,3.858,3.6,4.641,2.3,4.641Z" transform="translate(106.83 5.723)"/><path class="a" d="M17.367,31.059H15.3c-.308,0-.458-.166-.458-.506V20.9h-.092c-1.293,1.616-3.334,2.435-6.065,2.435C5.5,23.34,3.372,22.573,2,20.928S0,16.774,0,13V10.843c0-4.08.673-6.772,2.119-8.471C3.5.754,5.625,0,8.821,0c2.953,0,5,.9,6.249,2.757h.092L15.391.966A.6.6,0,0,1,16.08.414h1.1c.491,0,.644.083.644.6V30.553C17.826,30.888,17.672,31.059,17.367,31.059ZM8.867,2.573c-2.005,0-3.2.4-4.135,1.379-1.144,1.235-1.7,3.624-1.7,7.3v1.516c0,3.124.51,5.288,1.516,6.431.972,1.11,2.277,1.562,4.5,1.562,3.733,0,5.789-1.958,5.789-5.512v-6.8A5.871,5.871,0,0,0,13.3,4.118,6.045,6.045,0,0,0,8.867,2.573Z" transform="translate(116.34 13.534)"/><path class="a" d="M478.222,3977.471a.681.681,0,0,1,.643-.735h1.7a.581.581,0,0,1,.643.643V3992.4c0,1.838.322,2.848,1.194,3.583q1.172,1.1,4.135,1.1a5.971,5.971,0,0,0,4.227-1.286c.781-.735,1.057-1.562,1.057-3.4v-15.069a.544.544,0,0,1,.551-.6h1.93c.321,0,.505.184.505.6v15.437a6.553,6.553,0,0,1-2.022,5.238c-1.332,1.149-3.124,1.654-6.248,1.654-2.848,0-4.916-.551-6.248-1.654a6.431,6.431,0,0,1-2.067-5.238v-15.3" transform="translate(-338.084 -3962.788)"/><path class="a" d="M8.867,23.34H6.57a7.075,7.075,0,0,1-4.916-1.655A5.789,5.789,0,0,1,0,17.367V15.989c0-2.827,1.273-4.883,3.584-5.789A16.708,16.708,0,0,1,9.1,9.555h1.379c1.126,0,2.133.046,3.078.138V7.076c0-3.24-1.559-4.5-5.56-4.5a16.548,16.548,0,0,0-4.732.689,2.539,2.539,0,0,1-.632.11.527.527,0,0,1-.563-.479l-.23-.964a.85.85,0,0,1-.011-.683A.752.752,0,0,1,2.343.919,20.393,20.393,0,0,1,8.225,0c2.968,0,5.049.518,6.363,1.585S16.54,4.342,16.54,6.753V22.466c0,.374-.094.46-.505.46H14.518c-.413,0-.6-.142-.6-.46L13.829,20.9h-.092A5.348,5.348,0,0,1,8.867,23.34ZM8.225,12.083A6.833,6.833,0,0,0,4.181,13a3.563,3.563,0,0,0-1.148,3.032V17A3.892,3.892,0,0,0,4,19.985a3.993,3.993,0,0,0,2.8.828H8.684c3.141,0,4.87-1.7,4.87-4.778V12.221a23.241,23.241,0,0,0-2.757-.138Z" transform="translate(161.502 13.534)"/></g></g></svg>