<svg xmlns="http://www.w3.org/2000/svg" width="143.493" height="27.278" viewBox="0 0 143.493 27.278"><defs><style>.a{fill:#fff;}</style></defs><g transform="translate(0)"><path class="a" d="M1171.059,3994.958l3.026-12.958h7.985a4.976,4.976,0,0,1,2.231.474,4.026,4.026,0,0,1,1.538,1.307,4.551,4.551,0,0,1,.741,2.01,7.3,7.3,0,0,1-.171,2.638,9.247,9.247,0,0,1-1.069,2.66,9.093,9.093,0,0,1-.566.837q2.569-.744,5.428-1.5,1.215-.319,2.446-.629.251-.771.438-1.565a14.235,14.235,0,0,0,.313-5.325,9.589,9.589,0,0,0-1.624-4.2,8.411,8.411,0,0,0-3.332-2.734,11.114,11.114,0,0,0-4.738-.964h-14.582l-5.754,24.636a124.848,124.848,0,0,1,11.831-4.684h-4.139" transform="translate(-1162.828 -3975.006)"/><path class="a" d="M1194.265,3982h11.168a2.048,2.048,0,0,1,2.41,2.728q3.341-.521,6.744-.978a10.943,10.943,0,0,0,.049-2.682,7.022,7.022,0,0,0-1.172-3.271,6.119,6.119,0,0,0-2.6-2.087,9.45,9.45,0,0,0-3.8-.7H1189.3l-3.266,13.985q3.43-.817,6.962-1.558l1.269-5.433" transform="translate(-1152.939 -3975.006)"/><path class="a" d="M1217.908,3975.006h-6.629l-1.9,8.116q3.373-.4,6.8-.734l1.724-7.382" transform="translate(-1142.754 -3975.006)"/><path class="a" d="M1225.923,3981.384l-2.073-6.378h-7.957l2.33,6.94q3.821-.321,7.7-.562" transform="translate(-1139.914 -3975.006)"/><path class="a" d="M1243.92,3975.006h-7.677l-4.589,5.806q3.838-.11,7.715-.146l4.551-5.66" transform="translate(-1133.039 -3975.006)"/><path class="a" d="M1263.03,3981.312l1.472-6.306H1241.42l-1.318,5.644c7.5.012,15.177.235,22.928.662" transform="translate(-1129.353 -3975.006)"/><path class="a" d="M87.058,19.776a2.472,2.472,0,0,1-1.764-.635,3.247,3.247,0,0,1-.843-1.411L79.7,3.573c-2.452.316-4.933.664-7.372,1.036L68.861,19.444H62.232l3.2-13.711c-1.972.346-3.819.687-5.645,1.042a12.427,12.427,0,0,1-1.222,1.741,11.887,11.887,0,0,1-2.991,2.562l5.9,8.366h-9.4l-4.231-6.717-9.608-.009-1.571,6.726h-6.6l1.306-5.591c-2.771.856-5.569,1.775-8.315,2.735a16.724,16.724,0,0,1-3.225,1.792,13.651,13.651,0,0,1-4.418,1.037l-.035.013-.011,0-.021.008H0l.023-.1.036.072C1.62,18.62,39.149,0,110.068,0c10.572,0,21.506.419,32.5,1.246l.518.04.408.031c-.271-.019-.585-.04-.933-.061-3.053-.2-9.465-.533-18.1-.533-2.55,0-5.153.029-7.735.087l-.419,1.8H130.2l-1.479,6.329H114.826l-.821,3.514H130.52l-1.634,6.994H105.773l4.3-18.424c-2.036.082-4.155.187-6.3.313l-13.19,16.4a6.33,6.33,0,0,1-1.5,1.409A3.649,3.649,0,0,1,87.058,19.776ZM95.781,1.891h0c-2.87.233-5.741.5-8.533.8l2.3,7.086,6.231-7.883Z" transform="translate(0 7.502)"/></g></svg>