<svg xmlns="http://www.w3.org/2000/svg" width="178.061" height="46.728" viewBox="0 0 178.061 46.728"><defs><style>.a{fill:#fff;}</style></defs><g transform="translate(0)"><g transform="translate(0)"><path class="a" d="M618.47,3991.87a23.384,23.384,0,0,1-20.67,12.479H575.039V3991.87H618.47" transform="translate(-573.029 -3957.622)"/><path class="a" d="M619.08,3980.5h-45.44v-12.479h24.771A23.386,23.386,0,0,1,619.08,3980.5" transform="translate(-573.639 -3968.024)"/><path class="a" d="M619.876,3986.054a22.78,22.78,0,0,1-.758,5.8H577.337v-11.6h41.781a22.774,22.774,0,0,1,.758,5.8" transform="translate(-572.026 -3962.69)"/><path class="a" d="M7.42,20.74a7.4,7.4,0,0,1-5.3-1.994A7.516,7.516,0,0,1,0,13.2C0,8.555,2.809,5.667,7.332,5.667c1.644,0,3.921.883,4.732,2.308V0h3.564V20.419H12.3l-.234-1.987A5.27,5.27,0,0,1,7.42,20.74ZM7.654,9A3.969,3.969,0,0,0,3.564,13.2a4.3,4.3,0,0,0,1.19,3.06,4.036,4.036,0,0,0,2.9,1.176A4.082,4.082,0,0,0,11.831,13.2,4.1,4.1,0,0,0,7.654,9Z" transform="translate(62.567 11.038)"/><path class="a" d="M645.138,3979.9l-8.792,20.417h-3.914l2.687-6.251-5.754-14.167h4.148l2.191,6.222,1.373,4.06,1.49-3.972,2.629-6.31h3.943" transform="translate(-549.33 -3962.844)"/><path class="a" d="M652.278,3994.372v-7.536c0-2.191-1.2-3.855-3.476-3.855a3.788,3.788,0,0,0-3.68,4.03v7.361h-3.534v-14.43h3.184l.234,1.957a6.5,6.5,0,0,1,4.732-2.161c3.388,0,6.1,2.542,6.1,7.069v7.565h-3.564" transform="translate(-543.998 -3962.915)"/><path class="a" d="M7.419,15.189H7.346C2.815,15.189,0,12.257,0,7.537a7.5,7.5,0,0,1,2.153-5.62A7.492,7.492,0,0,1,7.434,0h.072a5.246,5.246,0,0,1,4.587,2.337L12.209.351h3.417v14.4h-3.36l-.174-2.1C11.306,14.275,9.145,15.158,7.419,15.189Zm.408-12A4.3,4.3,0,0,0,4.808,4.331,4.327,4.327,0,0,0,3.563,7.537a4.369,4.369,0,0,0,1.245,3.22,4.273,4.273,0,0,0,3.019,1.161,4.1,4.1,0,0,0,4.207-4.367A4.1,4.1,0,0,0,7.827,3.185Z" transform="translate(114.123 16.706)"/><path class="a" d="M675.849,3994.38v-7.711c0-1.9-.993-3.623-2.95-3.623-1.928,0-3.067,1.724-3.067,3.623v7.711h-3.564v-14.43h3.3l.263,1.753a4.173,4.173,0,0,1,3.8-1.986,4.315,4.315,0,0,1,4.265,2.687,5.215,5.215,0,0,1,4.82-2.628c4.089,0,6.1,2.512,6.1,6.835v7.77h-3.564v-7.77c0-1.9-.789-3.505-2.717-3.505a3.278,3.278,0,0,0-3.125,3.564v7.711h-3.564" transform="translate(-533.232 -3962.923)"/><path class="a" d="M3.887,20.547H.326V6.083H3.887V20.547ZM2.1,4.162A2.006,2.006,0,0,1,0,2.081,2,2,0,0,1,.657.521,2.179,2.179,0,0,1,2.1,0a2.006,2.006,0,0,1,2.1,2.081,2.008,2.008,0,0,1-.657,1.561A2.179,2.179,0,0,1,2.1,4.162Z" transform="translate(158.608 10.915)"/><path class="a" d="M701.628,3992.585a7.409,7.409,0,0,1-5.55,2.278c-4.177,0-7.653-2.511-7.653-7.624s3.476-7.624,7.653-7.624a6.84,6.84,0,0,1,5.2,2.132l-2.249,2.366a4.374,4.374,0,0,0-2.892-1.14,4.052,4.052,0,0,0-4.148,4.265,3.924,3.924,0,0,0,4.09,4.206,4.328,4.328,0,0,0,3.154-1.2l2.4,2.337" transform="translate(-523.567 -3962.968)"/></g></g></svg>