<svg xmlns="http://www.w3.org/2000/svg" width="63.73" height="63.716" viewBox="0 0 63.73 63.716"><defs><style>.a{fill:#4ebaa5;stroke:#4fb9a5;stroke-width:2px;}</style></defs><g transform="translate(1.144 1.144)"><path class="a" d="M30.653,46.79A15.75,15.75,0,1,0,46.4,62.539,15.725,15.725,0,0,0,30.653,46.79Zm0,25.989A10.239,10.239,0,1,1,40.892,62.539,10.258,10.258,0,0,1,30.653,72.778ZM50.72,46.146a3.674,3.674,0,1,1-3.674-3.674A3.665,3.665,0,0,1,50.72,46.146Zm10.431,3.728c-.233-4.921-1.357-9.28-4.962-12.871s-7.95-4.715-12.871-4.962c-5.072-.288-20.273-.288-25.345,0C13.067,32.274,8.708,33.4,5.1,36.989S.388,44.939.141,49.86c-.288,5.072-.288,20.273,0,25.344C.374,80.126,1.5,84.484,5.1,88.076s7.95,4.715,12.871,4.962c5.072.288,20.273.288,25.345,0,4.921-.233,9.28-1.357,12.871-4.962S60.9,80.126,61.151,75.2C61.439,70.133,61.439,54.946,61.151,49.874ZM54.6,80.646a10.366,10.366,0,0,1-5.839,5.839c-4.044,1.6-13.639,1.234-18.107,1.234s-14.077.356-18.107-1.234a10.366,10.366,0,0,1-5.839-5.839C5.1,76.6,5.473,67.008,5.473,62.539S5.117,48.462,6.707,44.432a10.366,10.366,0,0,1,5.839-5.839c4.044-1.6,13.639-1.234,18.107-1.234S44.73,37,48.76,38.593A10.366,10.366,0,0,1,54.6,44.432c1.6,4.044,1.234,13.639,1.234,18.107S56.2,76.616,54.6,80.646Z" transform="translate(0.075 -31.825)"/></g></svg>